<svg id="Layer_1" data-name="Layer 1" xmlns="http://www.w3.org/2000/svg" viewBox="0 0 1000 1000"><defs><style>.cls-1{fill:#fff;}</style></defs><title>Logo white</title><path class="cls-1" d="M500,0C223.85761,0,0,223.85767,0,500s223.85761,500,500,500,500-223.85767,500-500S776.1424,0,500,0Zm0,925C265.279,925,75,734.72095,75,500S265.279,75,500,75,925,265.27905,925,500,734.721,925,500,925ZM451.49632,520.09088a117.5,117.5,0,1,1-153.52115-63.59054A117.5,117.5,0,0,1,451.49632,520.09088Zm314.119-130.11237A117.5,117.5,0,1,1,612.09422,326.388,117.5,117.5,0,0,1,765.61537,389.97851Z"/></svg>