<svg id="Layer_1" data-name="Layer 1" xmlns="http://www.w3.org/2000/svg" viewBox="0 0 77.69 97.25"><defs><style>.cls-1{fill:#fff;}</style></defs><title>Untitled-2</title><path class="cls-1" d="M1314.16,851.38h-4.53a4.68,4.68,0,0,0-4.68,4.68v9.21H1255v-9.21a4.68,4.68,0,0,0-4.68-4.68h-4.53a4.68,4.68,0,0,0-4.68,4.68v87.89a4.68,4.68,0,0,0,4.68,4.68h4.53a4.68,4.68,0,0,0,4.68-4.68v-9.21H1305v9.21a4.68,4.68,0,0,0,4.68,4.68h4.53a4.68,4.68,0,0,0,4.68-4.68V856.06A4.68,4.68,0,0,0,1314.16,851.38ZM1305,879.16v13.89H1255V879.16ZM1255,920.84V906.95H1305v13.89Z" transform="translate(-1241.16 -851.38)"/></svg>