<?xml version="1.0" encoding="utf-8"?>
<!-- Generator: Adobe Illustrator 21.1.0, SVG Export Plug-In . SVG Version: 6.00 Build 0)  -->
<svg version="1.1" id="Capa_1" xmlns="http://www.w3.org/2000/svg" xmlns:xlink="http://www.w3.org/1999/xlink" x="0px" y="0px"
	 viewBox="0 0 490 490" style="enable-background:new 0 0 490 490;" xml:space="preserve">
<style type="text/css">
	.st0{fill:#FFFFFF;}
</style>
<g>
	<path class="st0" d="M245,169.1c27.1,0,49.1-22,49.1-49.1s-22-49.1-49.1-49.1s-49.1,22-49.1,49.1S217.9,169.1,245,169.1z M245,86.3
		c18.6,0,33.8,15.2,33.8,33.8c0,18.6-15.2,33.8-33.8,33.8s-33.8-15.2-33.8-33.8C211.2,101.4,226.4,86.3,245,86.3z"/>
	<path class="st0" d="M195.2,180.4c0,0-49.8,0.7-49.8,46.4s0,56.4,0,56.4s96.9,0,97.2,0L195.2,180.4z M160.8,226.9
		c0-20.5,14.7-27.5,25.2-29.9l32.8,71h-58V226.9z"/>
	<path class="st0" d="M344.5,283.3c0,0,0-10.6,0-56.4s-49.8-46.4-49.8-46.4l-47.4,102.8H344.5z M304,197
		c10.5,2.4,25.2,9.4,25.2,29.9V268h-58L304,197z"/>
	<polygon class="st0" points="210.8,180.4 245,256.1 279.2,180.4 245,180.4 	"/>
	<path class="st0" d="M367.5,0H53.6v490h382.8V76.6L367.5,0z M367.8,23.2l48.9,54.3h-48.9V23.2z M68.9,474.7V15.3h283.6v77.5h68.6
		v381.9H68.9z"/>
	<rect x="130.2" y="336.3" class="st0" width="229.7" height="15.3"/>
	<rect x="130.2" y="375.4" class="st0" width="229.7" height="15.3"/>
	<rect x="130.2" y="414.6" class="st0" width="229.7" height="15.3"/>
</g>
</svg>
